<?xml version="1.0" standalone="no"?>
<!DOCTYPE svg PUBLIC "-//W3C//DTD SVG 20010904//EN"
 "http://www.w3.org/TR/2001/REC-SVG-20010904/DTD/svg10.dtd">
<svg version="1.0" xmlns="http://www.w3.org/2000/svg"
 width="97.000000pt" height="100.000000pt" viewBox="0 0 97.000000 100.000000"
 preserveAspectRatio="xMidYMid meet">

<g transform="translate(0.000000,100.000000) scale(0.100000,-0.100000)"
fill="#000000" stroke="none">
<path d="M433 873 l-333 -3 0 -225 0 -225 89 0 89 0 6 31 c3 17 6 42 6 55 0
19 7 24 44 29 75 12 321 2 339 -13 9 -8 17 -32 19 -55 l3 -42 89 -3 89 -3 -7
32 c-3 17 -6 45 -6 61 0 18 -9 38 -26 53 l-26 25 31 35 c28 33 31 41 31 107 0
68 -1 71 -39 109 -21 22 -45 38 -52 37 -8 -2 -164 -4 -346 -5z m254 -145 c10
-18 10 -34 3 -52 l-10 -26 -195 0 -195 0 0 55 0 55 192 -2 193 -3 12 -27z"/>
<path d="M427 433 c-60 -39 -70 -53 -37 -53 18 0 20 -7 20 -57 0 -77 -7 -85
-66 -81 -44 3 -49 6 -52 28 -1 14 -5 44 -8 68 l-5 42 -89 0 -89 0 5 -87 c3
-49 7 -98 10 -109 7 -35 74 -56 185 -57 87 -1 100 2 143 27 l47 27 47 -30 c47
-30 48 -30 156 -24 87 5 114 10 139 27 l32 22 3 102 3 102 -85 0 -85 0 -5 -42
c-3 -24 -7 -54 -8 -68 -3 -23 -7 -25 -58 -25 l-55 0 -3 68 c-3 62 -1 67 18 67
31 0 24 12 -28 47 -70 47 -73 47 -135 6z"/>
</g>
</svg>
